# This file uses centimeters as units for non-parametric coordinates.

mtllib DirectionalLightProxy.mtl
g default
v 0.664072 -0.740164 0.740164
v 0.664072 0.740164 0.740164
v 2.300049 0.015738 0.007869
v 0.664072 0.740164 -0.740164
v 0.664072 -0.740164 -0.740164
v 0.664072 -0.444098 -0.482514
v 0.664072 -0.444098 0.482514
v 0.664072 0.444098 0.482514
v 0.664072 0.444098 -0.482514
v -1.560678 -0.444098 -0.482514
v -1.560678 -0.444098 0.482514
v -1.560678 0.444098 0.482514
v -1.560678 0.444098 -0.482514
vt 0.375000 0.000000
vt 0.375000 0.250000
vt 0.718750 0.296875
vt 0.375000 0.500000
vt 0.375000 0.750000
vt 0.375000 1.000000
vt 0.125000 0.000000
vt 0.125000 0.250000
vt 0.125000 0.000000
vt 0.375000 0.000000
vt 0.375000 0.250000
vt 0.125000 0.250000
vt 0.125000 0.000000
vt 0.375000 0.000000
vt 0.375000 0.250000
vt 0.125000 0.250000
vn 0.408557 0.000000 0.912733
vn 0.408557 0.000000 0.912733
vn 0.408557 0.000000 0.912733
vn 0.404890 0.914366 0.000000
vn 0.404890 0.914366 0.000000
vn 0.404890 0.914366 0.000000
vn 0.415832 0.000000 -0.909441
vn 0.415832 0.000000 -0.909441
vn 0.415832 0.000000 -0.909441
vn 0.419440 -0.907783 0.000000
vn 0.419440 -0.907783 0.000000
vn 0.419440 -0.907783 0.000000
vn -1.000000 0.000000 0.000000
vn -1.000000 0.000000 0.000000
vn -1.000000 0.000000 0.000000
vn -1.000000 0.000000 0.000000
vn -1.000000 0.000000 0.000000
vn -1.000000 0.000000 0.000000
vn -1.000000 0.000000 0.000000
vn -1.000000 0.000000 0.000000
vn -1.000000 -0.000000 0.000000
vn -1.000000 -0.000000 0.000000
vn -1.000000 -0.000000 0.000000
vn -1.000000 -0.000000 0.000000
vn 0.000000 -1.000000 0.000000
vn 0.000000 -1.000000 0.000000
vn 0.000000 -1.000000 0.000000
vn 0.000000 -1.000000 0.000000
vn 0.000000 0.000000 1.000000
vn 0.000000 0.000000 1.000000
vn 0.000000 0.000000 1.000000
vn 0.000000 0.000000 1.000000
vn 0.000000 1.000000 0.000000
vn 0.000000 1.000000 0.000000
vn 0.000000 1.000000 0.000000
vn 0.000000 1.000000 0.000000
vn 0.000000 0.000000 -1.000000
vn 0.000000 0.000000 -1.000000
vn 0.000000 0.000000 -1.000000
vn 0.000000 0.000000 -1.000000
s off
g pCube2
usemtl initialShadingGroup
f 1/1/1 3/3/2 2/2/3
f 2/2/4 3/3/5 4/4/6
f 4/4/7 3/3/8 5/5/9
f 5/5/10 3/3/11 1/6/12
f 10/13/13 11/14/14 12/15/15 13/16/16
s 1
f 5/7/17 1/1/18 7/10/19 6/9/20
f 1/1/18 2/2/21 8/11/22 7/10/19
f 2/2/21 4/8/23 9/12/24 8/11/22
f 4/8/23 5/7/17 6/9/20 9/12/24
s off
f 6/9/25 7/10/26 11/14/27 10/13/28
f 7/10/29 8/11/30 12/15/31 11/14/32
f 8/11/33 9/12/34 13/16/35 12/15/36
f 9/12/37 6/9/38 10/13/39 13/16/40