# Blender v2.79 (sub 0) OBJ File: ''
# www.blender.org
mtllib PointLightProxy.mtl
o Cube_Cube.001
v -0.419471 -0.419471 0.419471
v -0.419471 0.419471 0.419471
v -0.419471 -0.419471 -0.419471
v -0.419471 0.419471 -0.419471
v 0.419471 -0.419471 0.419471
v 0.419471 0.419471 0.419471
v 0.419471 -0.419471 -0.419471
v 0.419471 0.419471 -0.419471
v -0.009276 0.740593 -0.959867
v -0.006974 1.451785 -0.923584
v 0.107322 1.129897 -0.998772
v 0.189398 0.412228 -0.769508
v -0.110673 0.108868 -0.373022
v 0.230140 1.678506 -0.744335
v 0.271682 0.754572 -0.928237
v -0.122167 0.048006 -0.139460
v 0.044238 1.971010 -0.382929
v 0.164964 1.871726 -0.543815
v 0.423275 1.356389 -0.857767
v 0.534906 0.747428 -0.800543
v 0.156356 0.200572 -0.535178
v 0.497467 1.678506 -0.599604
v 0.626570 1.315189 -0.738148
v 0.572307 1.054708 -0.836834
v 0.505037 0.406314 -0.598270
v 0.745128 0.746663 -0.611510
v 0.404023 1.940607 -0.212528
v 0.776942 1.521396 -0.423588
v 0.889751 1.146442 -0.466196
v 0.695099 0.383101 -0.324597
v 0.085598 0.039489 -0.070248
v 0.647674 1.757011 -0.276652
v 0.887009 1.501412 -0.122264
v 0.901414 0.726098 -0.321972
v 0.392289 0.141936 -0.260893
v 0.995720 1.163515 -0.105118
v 0.875453 0.548143 -0.060532
v 0.562636 1.871611 -0.003788
v 0.923523 1.332672 0.281941
v 1.008622 0.942763 -0.009369
v 0.758290 1.695975 0.116284
v 0.851311 0.558107 0.248285
v 0.635882 0.264138 0.115754
v 0.930411 0.939078 0.387031
v 0.503765 1.829145 0.375870
v 0.690930 1.595715 0.478311
v 0.745330 1.332672 0.613897
v 0.759236 0.816009 0.635611
v 0.544312 0.392782 0.557985
v 0.391260 1.165941 0.928781
v 0.272181 0.070342 0.080686
v 0.491642 0.726097 0.821280
v 0.317562 0.146139 0.341432
v 0.221862 2.006833 0.189166
v 0.382791 1.499875 0.816412
v 0.195403 0.939005 0.990117
v 0.191191 0.261814 0.609921
v 0.215726 1.836153 0.583406
v 0.002257 1.559793 0.866114
v 0.163850 0.560392 0.873495
v -0.055430 0.378556 0.756986
v -0.017661 1.752341 0.709818
v -0.105850 1.244099 0.976738
v -0.131009 0.926724 0.994582
v -0.046206 1.972427 0.379716
v -0.382472 1.678205 0.678945
v -0.343653 1.376807 0.890383
v -0.480066 0.931940 0.880415
v -0.339171 0.560531 0.827659
v -0.214445 0.243454 0.585547
v 0.057132 2.039972 -0.125680
v -0.249343 1.877623 0.499874
v -0.678944 1.335597 0.687386
v -0.612049 1.672763 0.488246
v -0.776678 1.039538 0.637403
v -0.713056 0.731007 0.641692
v -0.606316 0.395872 0.484115
v -0.890314 1.335598 0.375241
v -0.377994 0.144498 0.268536
v -0.074017 0.070686 0.274004
v -0.746750 1.678507 0.222175
v -0.968269 1.130741 0.267960
v -0.916040 0.771347 0.339736
v -0.750535 0.400870 0.209638
v -0.445907 1.932561 0.160372
v -0.774929 1.678507 -0.080506
v -0.960782 1.332673 -0.096352
v -0.958365 0.738664 -0.086538
v -0.773629 0.400870 -0.093537
v -0.993413 1.118245 -0.219004
v -0.466152 0.143659 -0.057543
v -0.181251 2.028276 0.068419
v -0.869792 0.816809 -0.473878
v -0.685301 0.406313 -0.378615
v -0.550039 1.840618 -0.275889
v -0.751904 1.510742 -0.490489
v -0.706373 1.143437 -0.716519
v -0.318725 1.967531 -0.220244
v -0.315517 1.620268 -0.761722
v -0.619981 0.753909 -0.744193
v -0.484114 0.395872 -0.606316
v -0.398441 0.202768 -0.386581
v -0.409038 1.752341 -0.580380
v -0.490251 1.348070 -0.824542
v -0.158461 1.831225 -0.612320
v -0.284671 1.130589 -0.964966
v -0.286801 0.738664 -0.918530
v -0.234236 0.476650 -0.797243
v -0.131486 0.267174 -0.635346
vn 0.1174 -0.1335 -0.9841
vn 0.0537 0.7277 -0.6838
vn -0.0160 0.6303 -0.7762
vn 0.2308 0.4434 -0.8661
vn 0.1319 -0.9401 -0.3144
vn 0.2075 0.2918 -0.9337
vn 0.4276 -0.1572 -0.8902
vn 0.3246 0.7316 -0.5995
vn 0.0833 -0.9275 -0.3643
vn 0.3752 -0.7863 -0.4908
vn 0.5178 0.4592 -0.7218
vn 0.6589 -0.1668 -0.7335
vn 0.2042 0.9429 -0.2630
vn 0.2492 0.8965 -0.3662
vn 0.6880 -0.5056 -0.5207
vn 0.4772 0.7768 -0.4108
vn 0.6438 0.4615 -0.6103
vn 0.8671 -0.1399 -0.4780
vn 0.8293 -0.4969 -0.2558
vn 0.7772 0.5795 -0.2455
vn 0.9458 -0.3045 -0.1133
vn 0.6938 0.7153 -0.0842
vn 0.7359 -0.6720 -0.0826
vn 0.8852 0.4522 0.1088
vn -1.0000 0.0000 0.0000
vn 0.2664 0.9631 -0.0380
vn 0.9786 0.0689 0.1937
vn 0.4440 0.8803 0.1673
vn 0.7403 -0.4650 0.4856
vn 0.6839 -0.6503 0.3308
vn 0.5276 -0.7802 0.3362
vn 0.8106 0.3919 0.4351
vn 0.8460 -0.3286 0.4199
vn 0.8119 0.0463 0.5820
vn 0.5854 0.4638 0.6650
vn 0.5627 0.2764 0.7791
vn 0.6507 0.0494 0.7578
vn 0.2974 0.8745 0.3832
vn 0.4233 -0.1228 0.8976
vn 0.3889 -0.5324 0.7518
vn 0.3642 -0.7807 0.5078
vn 0.0982 -0.8963 0.4324
vn 0.0663 -0.9905 0.1205
vn 0.2977 -0.3036 0.9051
vn 0.1396 -0.6481 0.7486
vn -0.0017 -0.7846 0.6199
vn 0.0116 0.0552 0.9984
vn 0.0256 0.9955 0.0914
vn -0.0843 -0.3732 0.9239
vn -0.0327 0.8108 0.5844
vn -0.2031 0.7258 0.6572
vn -0.2337 -0.6465 0.7262
vn -0.1887 0.6071 0.7719
vn -0.2236 -0.8916 0.3937
vn -0.5337 -0.3140 0.7852
vn -0.5571 -0.4920 0.6690
vn -0.4368 0.7447 0.5046
vn -0.4172 -0.6495 0.6357
vn -0.4228 -0.7799 0.4616
vn -0.6166 0.0712 0.7841
vn -0.2422 0.9313 0.2722
vn -0.8287 -0.1634 0.5353
vn -0.5761 0.7571 0.3080
vn -0.8759 0.0845 0.4751
vn -0.0614 -0.9962 0.0618
vn -0.5766 -0.8016 0.1580
vn -0.6369 0.7686 0.0593
vn -0.3494 0.9365 -0.0307
vn -0.7151 0.6320 -0.2988
vn -0.8506 0.4681 -0.2393
vn -0.8890 0.3217 -0.3258
vn -0.9513 -0.1762 -0.2531
vn -0.5640 -0.7848 -0.2570
vn -0.8543 0.1914 -0.4832
vn -0.2924 -0.9289 -0.2271
vn -0.3516 0.8303 -0.4324
vn -0.5409 0.5223 -0.6593
vn -0.3261 -0.7695 -0.5491
vn -0.5043 0.0786 -0.8600
vn -0.1218 0.9602 -0.2513
vn -0.3007 -0.6712 -0.6776
vn -0.2625 0.3738 -0.8896
vn -0.0839 0.1983 -0.9765
vn 0.0040 0.8523 -0.5230
vn -0.0770 0.6138 -0.7857
vn 0.0000 0.0000 -1.0000
vn 1.0000 0.0000 0.0000
vn 0.0000 0.0000 1.0000
vn 0.0000 -1.0000 0.0000
vn 0.0000 1.0000 0.0000
vn 0.3942 -0.4790 -0.7843
vn 0.0589 -0.7449 -0.6645
vn 0.1220 -0.4415 -0.8889
vn 0.1179 -0.9623 -0.2450
vn 0.3421 0.1042 -0.9339
vn 0.3235 -0.0360 -0.9456
vn 0.9093 0.2931 -0.2953
vn 0.3176 -0.7255 -0.6105
vn 0.4091 0.5114 -0.7557
vn 0.5268 0.2030 -0.8254
vn 0.5972 -0.4472 -0.6659
vn 0.3913 0.8031 -0.4493
vn 0.7640 -0.0423 -0.6439
vn 0.6357 0.6284 -0.4484
vn 0.5104 -0.7514 -0.4182
vn 0.7716 0.2961 -0.5630
vn 0.7443 0.0954 -0.6610
vn 0.7680 -0.4585 -0.4471
vn 0.5660 0.8081 -0.1630
vn 0.9577 -0.0679 -0.2795
vn 0.2507 -0.9614 -0.1134
vn 0.9458 -0.2931 0.1399
vn 0.4716 -0.8816 -0.0190
vn 0.7586 0.6415 -0.1139
vn 0.6003 -0.7887 -0.1324
vn 0.3779 0.9256 0.0188
vn 0.7861 -0.6127 0.0812
vn 0.9504 0.3080 0.0427
vn 0.9844 0.1153 0.1332
vn 0.4612 0.6453 0.6090
vn 0.5937 0.7843 0.1798
vn 0.8141 0.5028 0.2907
vn 0.6701 0.6739 0.3113
vn 0.4496 -0.8757 0.1763
vn 0.8724 0.1403 0.4683
vn 0.1927 0.6250 0.7565
vn 0.5835 -0.0647 0.8096
vn 0.6077 -0.4309 0.6671
vn 0.1640 0.9043 0.3941
vn 0.3314 -0.6072 0.7222
vn 0.1520 0.3000 0.9418
vn 0.1407 -0.9570 0.2537
vn 0.0242 -0.2961 0.9548
vn 0.0101 -0.8725 0.4884
vn -0.3066 0.0748 0.9489
vn 0.1199 0.1613 0.9796
vn -0.1296 0.3671 0.9211
vn -0.0006 0.9842 0.1768
vn -0.0804 -0.4672 0.8805
vn -0.0191 0.8492 0.5278
vn -0.3046 -0.2462 0.9201
vn -0.2284 0.5392 0.8106
vn -0.5292 0.4752 0.7029
vn -0.5254 0.1423 0.8389
vn -0.2544 0.9206 0.2963
vn -0.7712 -0.4718 0.4274
vn -0.6555 -0.1248 0.7448
vn -0.8151 0.1759 0.5520
vn -0.4613 0.7942 0.3956
vn -0.7552 0.4702 0.4567
vn -0.5734 -0.7672 0.2873
vn -0.2439 -0.9668 0.0757
vn -0.8910 -0.0391 0.4524
vn -0.8841 -0.4565 0.0997
vn -0.8877 0.4468 0.1114
vn -0.6442 -0.7633 0.0491
vn -0.9924 -0.0956 0.0780
vn -0.9476 0.2874 0.1398
vn -0.9912 0.1234 0.0480
vn -0.8477 -0.4512 -0.2791
vn -0.4658 0.8817 -0.0746
vn -0.5991 0.8002 -0.0256
vn -0.6138 -0.7624 -0.2047
vn -0.6915 -0.4578 -0.5588
vn -0.8658 0.0645 -0.4962
vn -0.5883 0.6621 -0.4644
vn -0.5293 -0.7289 -0.4342
vn -0.3148 -0.9146 -0.2538
vn -0.7428 -0.1179 -0.6590
vn -0.1555 0.9790 -0.1320
vn -0.4894 -0.0736 -0.8689
vn -0.3212 0.8593 -0.3979
vn -0.5437 0.5039 -0.6712
vn -0.6556 0.3352 -0.6767
vn -0.2504 -0.8376 -0.4856
vn -0.4349 -0.4566 -0.7761
vn -0.1829 0.9030 -0.3887
vn -0.1109 -0.0913 -0.9896
vn -0.3011 0.6902 -0.6580
vn -0.2583 0.3398 -0.9043
vn -0.0188 -0.8567 -0.5155
vn -0.0602 -0.4859 -0.8719
vn -0.0439 -0.6243 -0.7799
usemtl None
s off
f 11//1 15//1 9//1
f 18//2 14//2 105//2
f 105//3 14//3 10//3
f 14//4 19//4 10//4
f 13//5 21//5 35//5
f 10//6 19//6 11//6
f 24//7 20//7 15//7
f 18//8 22//8 14//8
f 35//9 31//9 16//9
f 25//10 35//10 21//10
f 22//11 23//11 19//11
f 20//12 24//12 26//12
f 71//13 27//13 17//13
f 17//14 27//14 18//14
f 25//15 26//15 30//15
f 27//16 32//16 22//16
f 22//17 28//17 23//17
f 29//18 34//18 26//18
f 30//19 34//19 37//19
f 32//20 33//20 28//20
f 40//21 37//21 34//21
f 38//22 41//22 32//22
f 37//23 43//23 30//23
f 41//24 39//24 33//24
f 3//25 1//25 2//25 4//25
f 71//26 54//26 27//26
f 39//27 44//27 40//27
f 54//28 45//28 38//28
f 42//29 48//29 49//29
f 42//30 49//30 43//30
f 43//31 49//31 53//31
f 46//32 47//32 39//32
f 44//33 48//33 42//33
f 47//34 48//34 44//34
f 46//35 55//35 47//35
f 47//36 55//36 50//36
f 47//37 50//37 48//37
f 45//38 54//38 58//38
f 50//39 56//39 52//39
f 49//40 52//40 60//40
f 49//41 57//41 53//41
f 57//42 80//42 53//42
f 31//43 51//43 80//43
f 56//44 60//44 52//44
f 60//45 61//45 57//45
f 57//46 61//46 70//46
f 63//47 64//47 56//47
f 54//48 71//48 92//48
f 64//49 69//49 60//49
f 65//50 72//50 58//50
f 62//51 72//51 66//51
f 69//52 70//52 61//52
f 62//53 66//53 59//53
f 80//54 70//54 79//54
f 68//55 76//55 69//55
f 69//56 76//56 77//56
f 66//57 72//57 74//57
f 69//58 77//58 70//58
f 70//59 77//59 79//59
f 73//60 75//60 68//60
f 65//61 92//61 85//61
f 76//62 75//62 83//62
f 85//63 81//63 74//63
f 78//64 82//64 75//64
f 31//65 80//65 16//65
f 84//66 91//66 79//66
f 85//67 86//67 81//67
f 92//68 98//68 85//68
f 86//69 95//69 96//69
f 86//70 96//70 87//70
f 87//71 96//71 90//71
f 90//72 93//72 88//72
f 94//73 102//73 91//73
f 90//74 96//74 97//74
f 102//75 13//75 91//75
f 98//76 105//76 95//76
f 103//77 99//77 96//77
f 101//78 109//78 102//78
f 104//79 106//79 97//79
f 71//80 17//80 98//80
f 101//81 108//81 109//81
f 99//82 10//82 104//82
f 106//83 10//83 11//83
f 105//84 17//84 18//84
f 99//85 105//85 10//85
f 7//86 3//86 4//86 8//86
f 5//87 7//87 8//87 6//87
f 1//88 5//88 6//88 2//88
f 1//89 3//89 7//89 5//89
f 6//90 8//90 4//90 2//90
f 20//91 25//91 12//91 15//91
f 109//92 12//92 21//92
f 9//93 15//93 12//93
f 13//94 35//94 16//94
f 11//95 19//95 24//95
f 11//96 24//96 15//96
f 33//97 36//97 29//97 28//97
f 12//98 25//98 21//98
f 14//99 22//99 19//99
f 19//100 23//100 24//100
f 20//101 26//101 25//101
f 18//102 27//102 22//102
f 24//103 29//103 26//103
f 22//104 32//104 28//104
f 35//105 25//105 30//105
f 23//106 28//106 29//106
f 24//107 23//107 29//107
f 30//108 26//108 34//108
f 32//109 27//109 38//109
f 40//110 34//110 29//110 36//110
f 31//111 35//111 51//111
f 42//112 37//112 40//112 44//112
f 35//113 43//113 51//113
f 33//114 32//114 41//114
f 35//115 30//115 43//115
f 38//116 27//116 54//116
f 43//117 37//117 42//117
f 36//118 33//118 39//118
f 36//119 39//119 40//119
f 55//120 46//120 45//120 58//120
f 38//121 45//121 41//121
f 41//122 46//122 39//122
f 46//123 41//123 45//123
f 51//124 43//124 53//124
f 39//125 47//125 44//125
f 59//126 55//126 58//126 62//126
f 48//127 50//127 52//127
f 49//128 48//128 52//128
f 54//129 65//129 58//129
f 49//130 60//130 57//130
f 59//131 63//131 50//131 55//131
f 51//132 53//132 80//132
f 56//133 64//133 60//133
f 57//134 70//134 80//134
f 67//135 68//135 64//135 63//135
f 50//136 63//136 56//136
f 63//137 59//137 67//137
f 54//138 92//138 65//138
f 61//139 60//139 69//139
f 62//140 58//140 72//140
f 64//141 68//141 69//141
f 59//142 66//142 67//142
f 73//143 67//143 66//143 74//143
f 67//144 73//144 68//144
f 65//145 85//145 72//145
f 83//146 84//146 77//146 76//146
f 68//147 75//147 76//147
f 73//148 78//148 75//148
f 74//149 72//149 85//149
f 78//150 73//150 74//150 81//150
f 77//151 84//151 79//151
f 16//152 80//152 79//152 91//152
f 75//153 82//153 83//153
f 88//154 89//154 84//154 83//154
f 87//155 78//155 81//155 86//155
f 84//156 89//156 91//156
f 90//157 88//157 83//157 82//157
f 82//158 78//158 87//158
f 82//159 87//159 90//159
f 93//160 94//160 89//160 88//160
f 85//161 98//161 95//161
f 86//162 85//162 95//162
f 89//163 94//163 91//163
f 100//164 101//164 94//164 93//164
f 90//165 97//165 93//165
f 96//166 95//166 103//166
f 102//167 94//167 101//167
f 91//168 13//168 16//168
f 93//169 97//169 100//169
f 92//170 71//170 98//170
f 106//171 107//171 100//171 97//171
f 103//172 95//172 105//172
f 96//173 99//173 104//173
f 97//174 96//174 104//174
f 102//175 109//175 13//175
f 107//176 108//176 101//176 100//176
f 98//177 17//177 105//177
f 9//178 107//178 106//178 11//178
f 99//179 103//179 105//179
f 106//180 104//180 10//180
f 109//181 21//181 13//181
f 9//182 12//182 108//182 107//182
f 108//183 12//183 109//183
