# Blender v2.79 (sub 0) OBJ File: ''
# www.blender.org
mtllib foliage_quad_multiple.mtl
o Plane.008
v -0.386468 0.963388 -1.152949
v -0.386468 -0.036612 -1.152949
v 0.058136 -0.036612 -0.257222
v 0.058136 0.963388 -0.257221
v 0.330990 0.963388 -0.018136
v 0.330990 -0.036612 -0.018136
v 0.610330 -0.036612 -0.978328
v 0.610330 0.963388 -0.978328
v -0.582998 0.766185 -0.279523
v -0.582998 -0.039385 -0.279523
v -0.040158 -0.039385 -0.874726
v -0.040158 0.766185 -0.874726
v -0.240025 0.743579 0.163775
v -0.240025 -0.039385 0.163776
v -0.701741 -0.039385 -0.468562
v -0.701741 0.743579 -0.468562
v -0.259745 0.963388 -0.594692
v -0.259745 -0.036612 -0.594692
v 0.637842 -0.036612 -0.153856
v 0.637842 0.963388 -0.153856
v -0.025008 0.748038 0.028285
v -0.025008 -0.034925 0.028285
v 0.089795 -0.034925 0.802786
v 0.089794 0.748038 0.802786
v 0.324157 0.746351 0.153062
v 0.324157 -0.036612 0.153062
v -0.252820 -0.036612 0.682335
v -0.252820 0.746351 0.682335
v 0.730321 0.746351 0.733867
v 0.730321 -0.036612 0.733867
v 0.268606 -0.036612 0.101530
v 0.268606 0.746351 0.101530
v -0.665933 0.657429 0.943271
v -0.665933 -0.036612 0.943272
v -0.367703 -0.036612 0.316572
v -0.367703 0.657429 0.316573
v -0.885757 0.963388 0.748692
v -0.885757 -0.036612 0.748692
v -0.285357 -0.036612 -0.051008
v -0.285357 0.963388 -0.051008
v -1.053545 0.963388 0.172809
v -1.053545 -0.036612 0.172809
v -0.117569 -0.036612 0.524875
v -0.117569 0.963388 0.524875
v 0.387349 0.768957 0.290569
v 0.387349 -0.036612 0.290569
v 0.930188 -0.036612 -0.304635
v 0.930188 0.768957 -0.304635
v 0.168929 0.963388 -0.212604
v 0.168929 -0.036612 -0.212604
v 1.148608 -0.036612 -0.012034
v 1.148608 0.963388 -0.012033
vt 0.999900 0.999900
vt 0.999900 0.000100
vt 0.000100 0.000100
vt 0.000100 0.999900
vt 0.999900 0.999900
vt 0.999900 0.000100
vt 0.000100 0.000100
vt 0.000100 0.999900
vt 0.999900 0.999900
vt 0.999900 0.000100
vt 0.000100 0.000100
vt 0.000100 0.999900
vt 0.999900 0.999900
vt 0.999900 0.000100
vt 0.000100 0.000100
vt 0.000100 0.999900
vt 0.999900 0.999900
vt 0.999900 0.000100
vt 0.000100 0.000100
vt 0.000100 0.999900
vt 0.999900 0.999900
vt 0.999900 0.000100
vt 0.000100 0.000100
vt 0.000100 0.999900
vt 0.999900 0.999900
vt 0.999900 0.000100
vt 0.000100 0.000100
vt 0.000100 0.999900
vt 0.999900 0.999900
vt 0.999900 0.000100
vt 0.000100 0.000100
vt 0.000100 0.999900
vt 0.999900 0.999900
vt 0.999900 0.000100
vt 0.000100 0.000100
vt 0.000100 0.999900
vt 0.999900 0.999900
vt 0.999900 0.000100
vt 0.000100 0.000100
vt 0.000100 0.999900
vt 0.999900 0.999900
vt 0.999900 0.000100
vt 0.000100 0.000100
vt 0.000100 0.999900
vt 0.999900 0.999900
vt 0.999900 0.000100
vt 0.000100 0.000100
vt 0.000100 0.999900
vt 0.999900 0.999900
vt 0.999900 0.000100
vt 0.000100 0.000100
vt 0.000100 0.999900
vn -0.8957 -0.0000 0.4446
vn 0.9602 -0.0000 0.2793
vn 0.7389 -0.0000 0.6739
vn 0.8076 -0.0000 -0.5897
vn -0.4408 -0.0000 0.8976
vn -0.9892 -0.0000 0.1466
vn -0.6760 -0.0000 -0.7369
vn 0.9030 -0.0000 0.4297
vn 0.7997 -0.0000 0.6004
vn -0.3521 -0.0000 0.9360
vn -0.2006 -0.0000 0.9797
usemtl None
s 1
f 1/1/1 2/2/1 3/3/1 4/4/1
f 5/5/2 6/6/2 7/7/2 8/8/2
f 9/9/3 10/10/3 11/11/3 12/12/3
f 13/13/4 14/14/4 15/15/4 16/16/4
f 17/17/5 18/18/5 19/19/5 20/20/5
f 21/21/6 22/22/6 23/23/6 24/24/6
f 25/25/7 26/26/7 27/27/7 28/28/7
f 29/29/4 30/30/4 31/31/4 32/32/4
f 33/33/8 34/34/8 35/35/8 36/36/8
f 37/37/9 38/38/9 39/39/9 40/40/9
f 41/41/10 42/42/10 43/43/10 44/44/10
f 45/45/3 46/46/3 47/47/3 48/48/3
f 49/49/11 50/50/11 51/51/11 52/52/11
