# Blender v2.79 (sub 0) OBJ File: ''
# www.blender.org
mtllib foliage_quad_double.mtl
o Plane
v -0.353553 1.000000 -0.353553
v -0.353553 0.000000 -0.353553
v 0.353553 1.000000 0.353553
v 0.353553 0.000000 0.353553
v -0.353553 1.000000 0.353553
v -0.353553 0.000000 0.353554
v 0.353553 1.000000 -0.353554
v 0.353553 0.000000 -0.353553
vt 0.999900 0.999900
vt 0.000100 0.999900
vt 0.000100 0.000100
vt 0.999900 0.000100
vt 0.999900 0.999900
vt 0.000100 0.999900
vt 0.000100 0.000100
vt 0.999900 0.000100
vn -0.7071 0.0000 0.7071
vn 0.7071 0.0000 0.7071
usemtl None
s off
f 3/1/1 1/2/1 2/3/1 4/4/1
f 7/5/2 5/6/2 6/7/2 8/8/2
